<svg width="160" height="90" viewBox="0 0 160 90" fill="none" xmlns="http://www.w3.org/2000/svg">
<g clip-path="url(#clip0_4277_32023)">
<g clip-path="url(#clip1_4277_32023)">
<rect x="10" y="20.125" width="232.5" height="50" rx="5" fill="#DDF4DD"/>
<path fill-rule="evenodd" clip-rule="evenodd" d="M22.5 45.125C22.5 52.0286 28.0964 57.625 35 57.625C41.9036 57.625 47.5 52.0286 47.5 45.125C47.5 38.2214 41.9036 32.625 35 32.625C28.0964 32.625 22.5 38.2214 22.5 45.125ZM45.625 45.125C45.625 50.993 40.868 55.75 35 55.75C29.132 55.75 24.375 50.993 24.375 45.125C24.375 39.257 29.132 34.5 35 34.5C40.868 34.5 45.625 39.257 45.625 45.125ZM34.3921 49.5581C34.3991 49.5515 34.4061 49.5448 34.4129 49.5379L40.6629 43.2879C41.029 42.9218 41.029 42.3282 40.6629 41.9621C40.2968 41.596 39.7032 41.596 39.3371 41.9621L33.7498 47.5493L31.2877 45.0872C30.4038 44.2033 29.078 45.5291 29.9619 46.413L33.0869 49.538C33.5198 49.9709 34.0587 49.8738 34.3921 49.5581Z" fill="#096D11"/>
<rect opacity="0.2" x="57.5" y="33.875" width="165" height="10" rx="2.5" fill="#096D11"/>
<rect opacity="0.2" x="57.5" y="48.875" width="72.5" height="7.5" rx="2.5" fill="#096D11"/>
</g>
</g>
<defs>
<clipPath id="clip0_4277_32023">
<path d="M0 8C0 3.58172 3.58172 0 8 0H152C156.418 0 160 3.58172 160 8V82C160 86.4183 156.418 90 152 90H8C3.58172 90 0 86.4183 0 82V8Z" fill="white"/>
</clipPath>
<clipPath id="clip1_4277_32023">
<rect width="160" height="90" rx="10" fill="white"/>
</clipPath>
</defs>
</svg>
