<svg width="160" height="90" viewBox="0 0 160 90" fill="none" xmlns="http://www.w3.org/2000/svg">
<g clip-path="url(#clip0_4277_32024)">
<g clip-path="url(#clip1_4277_32024)">
<rect x="10" y="20.125" width="232.5" height="50" rx="5" fill="#FFEBD6"/>
<path fill-rule="evenodd" clip-rule="evenodd" d="M45.8241 52.7726L37.2442 35.3084C37.0004 34.8121 36.5989 34.4107 36.1027 34.1669C34.8634 33.5581 33.3653 34.0691 32.7565 35.3084L24.1766 52.7726C24.008 53.1157 23.9204 53.4928 23.9204 53.875C23.9204 55.2557 25.0397 56.375 26.4204 56.375H43.5802C43.9624 56.375 44.3395 56.2874 44.6826 56.1188C45.9218 55.51 46.4329 54.0119 45.8241 52.7726ZM35.2758 35.8496C35.3998 35.9105 35.5002 36.0109 35.5612 36.135L44.1411 53.5992C44.2933 53.909 44.1655 54.2836 43.8557 54.4358C43.7699 54.4779 43.6757 54.4998 43.5801 54.4998H26.4203C26.0751 54.4998 25.7953 54.22 25.7953 53.8748C25.7953 53.7793 25.8172 53.685 25.8593 53.5992L34.4392 36.135C34.5914 35.8251 34.966 35.6974 35.2758 35.8496ZM35 52.9375C35.8629 52.9375 36.5625 52.2379 36.5625 51.375C36.5625 50.5121 35.8629 49.8125 35 49.8125C34.1371 49.8125 33.4375 50.5121 33.4375 51.375C33.4375 52.2379 34.1371 52.9375 35 52.9375ZM36.25 42.625C36.25 41.9346 35.6904 41.375 35 41.375C34.3096 41.375 33.75 41.9346 33.75 42.625V47C33.75 47.6904 34.3096 48.25 35 48.25C35.6904 48.25 36.25 47.6904 36.25 47V42.625Z" fill="#944F05"/>
<rect opacity="0.2" x="57.5" y="33.875" width="165" height="10" rx="2.5" fill="#944F05"/>
<rect opacity="0.2" x="57.5" y="48.875" width="72.5" height="7.5" rx="2.5" fill="#944F05"/>
</g>
</g>
<defs>
<clipPath id="clip0_4277_32024">
<path d="M0 8C0 3.58172 3.58172 0 8 0H152C156.418 0 160 3.58172 160 8V82C160 86.4183 156.418 90 152 90H8C3.58172 90 0 86.4183 0 82V8Z" fill="white"/>
</clipPath>
<clipPath id="clip1_4277_32024">
<rect width="160" height="90" rx="10" fill="white"/>
</clipPath>
</defs>
</svg>
