<svg width="160" height="90" viewBox="0 0 160 90" fill="none" xmlns="http://www.w3.org/2000/svg">
<g clip-path="url(#clip0_4277_32021)">
<g clip-path="url(#clip1_4277_32021)">
<rect x="10" y="20.125" width="232.5" height="50" rx="5" fill="#E0EFFF"/>
<path fill-rule="evenodd" clip-rule="evenodd" d="M22.5 45.125C22.5 52.0286 28.0964 57.625 35 57.625C41.9036 57.625 47.5 52.0286 47.5 45.125C47.5 38.2214 41.9036 32.625 35 32.625C28.0964 32.625 22.5 38.2214 22.5 45.125ZM45.625 45.125C45.625 50.993 40.868 55.75 35 55.75C29.132 55.75 24.375 50.993 24.375 45.125C24.375 39.257 29.132 34.5 35 34.5C40.868 34.5 45.625 39.257 45.625 45.125ZM33.75 44.5C33.75 43.8096 34.3096 43.25 35 43.25C35.6904 43.25 36.25 43.8096 36.25 44.5V50.125C36.25 50.8154 35.6904 51.375 35 51.375C34.3096 51.375 33.75 50.8154 33.75 50.125V44.5ZM36.5625 40.125C36.5625 40.9879 35.8629 41.6875 35 41.6875C34.1371 41.6875 33.4375 40.9879 33.4375 40.125C33.4375 39.2621 34.1371 38.5625 35 38.5625C35.8629 38.5625 36.5625 39.2621 36.5625 40.125Z" fill="#1854D7"/>
<rect opacity="0.2" x="57.5" y="33.875" width="165" height="10" rx="2.5" fill="#1A62FF"/>
<rect opacity="0.2" x="57.5" y="48.875" width="72.5" height="7.5" rx="2.5" fill="#1A62FF"/>
</g>
</g>
<defs>
<clipPath id="clip0_4277_32021">
<path d="M0 8C0 3.58172 3.58172 0 8 0H152C156.418 0 160 3.58172 160 8V82C160 86.4183 156.418 90 152 90H8C3.58172 90 0 86.4183 0 82V8Z" fill="white"/>
</clipPath>
<clipPath id="clip1_4277_32021">
<rect width="160" height="90" rx="10" fill="white"/>
</clipPath>
</defs>
</svg>
