<svg width="160" height="90" viewBox="0 0 160 90" fill="none" xmlns="http://www.w3.org/2000/svg">
<g clip-path="url(#clip0_4277_32022)">
<g clip-path="url(#clip1_4277_32022)">
<rect x="10" y="20.125" width="232.5" height="50" rx="5" fill="#F1EBFF"/>
<path d="M34.9999 44.5957C34.9999 45.1135 34.5802 45.5332 34.0624 45.5332H30.3574C29.8396 45.5332 29.4199 45.1135 29.4199 44.5957C29.4199 44.0779 29.8396 43.6582 30.3574 43.6582H34.0624C34.5802 43.6582 34.9999 44.0779 34.9999 44.5957Z" fill="#7630D7"/>
<path d="M39.6426 41.8613C40.1604 41.8613 40.5801 41.4416 40.5801 40.9238C40.5801 40.4061 40.1604 39.9863 39.6426 39.9863H30.3575C29.8397 39.9863 29.42 40.4061 29.42 40.9238C29.42 41.4416 29.8397 41.8613 30.3575 41.8613H39.6426Z" fill="#7630D7"/>
<path fill-rule="evenodd" clip-rule="evenodd" d="M46.25 45.831C46.25 47.4807 45.5977 49.0636 44.4353 50.2344L40.3098 54.3898C39.1365 55.5716 37.5399 56.2363 35.8745 56.2363H28.75C25.9886 56.2363 23.75 53.9978 23.75 51.2363V38.7363C23.75 35.9749 25.9886 33.7363 28.75 33.7363H41.25C44.0114 33.7363 46.25 35.9749 46.25 38.7363V45.831ZM28.75 35.6113H41.25C42.9759 35.6113 44.375 37.0104 44.375 38.7363V44.3441C44.375 45.207 43.6754 45.9066 42.8125 45.9066H40.625C38.0362 45.9066 35.9375 48.0053 35.9375 50.5941V52.7816C35.9375 53.6445 35.2379 54.3441 34.375 54.3441H31.3281V54.3613H28.75C27.0241 54.3613 25.625 52.9622 25.625 51.2363V38.7363C25.625 37.0104 27.0241 35.6113 28.75 35.6113ZM37.5854 54.0129C38.1018 53.7935 38.5762 53.4747 38.9792 53.0687L43.1047 48.9134C43.4942 48.5211 43.8019 48.0627 44.0168 47.5647C43.642 47.7049 43.2362 47.7816 42.8125 47.7816H40.625C39.0717 47.7816 37.8125 49.0408 37.8125 50.5941V52.7816C37.8125 53.2155 37.7321 53.6307 37.5854 54.0129Z" fill="#7630D7"/>
<rect opacity="0.2" x="57.5" y="33.875" width="165" height="10" rx="2.5" fill="#7630D7"/>
<rect opacity="0.2" x="57.5" y="48.875" width="72.5" height="7.5" rx="2.5" fill="#7630D7"/>
</g>
</g>
<defs>
<clipPath id="clip0_4277_32022">
<path d="M0 8C0 3.58172 3.58172 0 8 0H152C156.418 0 160 3.58172 160 8V82C160 86.4183 156.418 90 152 90H8C3.58172 90 0 86.4183 0 82V8Z" fill="white"/>
</clipPath>
<clipPath id="clip1_4277_32022">
<rect width="160" height="90" rx="10" fill="white"/>
</clipPath>
</defs>
</svg>
