<svg width="80" height="79" viewBox="0 0 80 79" fill="none" xmlns="http://www.w3.org/2000/svg">
<path fill-rule="evenodd" clip-rule="evenodd" d="M4 6C1.79086 6 0 7.79086 0 10V70C0 72.2091 1.79086 74 4 74H76C78.2091 74 80 72.2091 80 70V10C80 7.79086 78.2091 6 76 6H4ZM5.99996 14C5.99996 12.8954 6.89539 12 7.99996 12H20C21.1045 12 22 12.8954 22 14V66C22 67.1046 21.1045 68 20 68H7.99996C6.89539 68 5.99996 67.1046 5.99996 66V14ZM26 14C26 12.8954 26.8954 12 28 12H72C73.1045 12 74 12.8954 74 14V66C74 67.1046 73.1045 68 72 68H28C26.8954 68 26 67.1046 26 66V14Z" fill="#555555"/>
</svg>
