<svg width="80" height="80" viewBox="0 0 80 80" fill="none" xmlns="http://www.w3.org/2000/svg">
<path fill-rule="evenodd" clip-rule="evenodd" d="M5 6C2.23858 6 0 8.23858 0 11V69C0 71.7614 2.23858 74 5 74H75C77.7614 74 80 71.7614 80 69V11C80 8.23858 77.7614 6 75 6H5ZM8 12C6.89543 12 6 12.8954 6 14V66C6 67.1046 6.89543 68 8 68H24C25.1046 68 26 67.1046 26 66V14C26 12.8954 25.1046 12 24 12H8ZM32 12C30.8954 12 30 12.8954 30 14V66C30 67.1046 30.8954 68 32 68H48C49.1046 68 50 67.1046 50 66V14C50 12.8954 49.1046 12 48 12H32ZM54 14C54 12.8954 54.8954 12 56 12H72C73.1046 12 74 12.8954 74 14V66C74 67.1046 73.1046 68 72 68H56C54.8954 68 54 67.1046 54 66V14Z" fill="#DAAA4E"/>
</svg>
